<?xml version="1.0" encoding="iso-8859-1"?>
<!-- Generator: Adobe Illustrator 19.0.0, SVG Export Plug-In . SVG Version: 6.00 Build 0)  -->
<svg xmlns="http://www.w3.org/2000/svg" xmlns:xlink="http://www.w3.org/1999/xlink" version="1.1" id="Layer_1" x="0px" y="0px" viewBox="0 0 500.106 500.106" style="enable-background:new 0 0 500.106 500.106;" xml:space="preserve" width="512" height="512">
<g>
	<path d="M300.183,1.122c-12.13,0.33-21.63,10.58-21.63,22.71v143.27c0,15.74-12.76,28.5-28.5,28.5c-15.755,0-28.5-12.781-28.5-28.5   V23.832c0-12.13-9.5-22.38-21.63-22.71c-12.57-0.35-22.88,9.75-22.88,22.25v151.29c0,31.04,21.72,57.1,50.76,63.79   c0,1.68,0,137.98,0,141.22c-23.1,8.93-39.49,31.33-39.49,57.58c0,34.01,27.59,61.74,61.74,61.74c34.1,0,61.74-27.67,61.74-61.74   c0-26.25-16.39-48.65-39.49-57.58c0-3.438,0-139.282,0-141.22c29.04-6.69,50.76-32.75,50.76-63.79V23.372   C323.063,10.872,312.753,0.772,300.183,1.122z M275.793,437.252c0,14.22-11.53,25.74-25.74,25.74s-25.74-11.52-25.74-25.74   c0-13.652,10.724-25.51,25.74-25.51C265.064,411.743,275.793,423.596,275.793,437.252z"/>
	<path d="M111.599,66.298c-5.857-5.857-15.355-5.857-21.213,0c-31.144,31.145-31.144,81.821,0,112.966   c5.857,5.857,15.354,5.859,21.213,0c5.858-5.857,5.858-15.355,0-21.213c-19.448-19.448-19.448-51.092,0-70.54   C117.457,81.653,117.457,72.155,111.599,66.298z"/>
	<path d="M64.182,40.093c5.858-5.857,5.858-15.355,0-21.213c-5.857-5.857-15.355-5.857-21.213,0   c-57.292,57.291-57.292,150.511,0,207.802c5.858,5.858,15.355,5.857,21.213,0c5.858-5.857,5.858-15.355,0-21.213   C18.587,159.874,18.587,85.687,64.182,40.093z"/>
	<path d="M409.72,66.298c-5.859-5.858-15.355-5.858-21.213,0c-5.858,5.857-5.858,15.355,0,21.213   c19.448,19.448,19.448,51.092,0,70.54c-5.857,5.857-5.857,15.355,0,21.213c5.858,5.858,15.355,5.857,21.213,0   C440.864,148.119,440.864,97.442,409.72,66.298z"/>
	<path d="M457.138,18.88c-5.857-5.857-15.355-5.857-21.213,0c-5.858,5.857-5.858,15.355,0,21.213   c45.594,45.595,45.594,119.781,0,165.376c-5.858,5.857-5.858,15.355,0,21.213c5.858,5.858,15.355,5.857,21.213,0   C514.429,169.391,514.429,76.171,457.138,18.88z"/>
</g>















</svg>
